<svg xmlns="http://www.w3.org/2000/svg" viewBox="0 0 64 64" role="img" aria-labelledby="title">
  <title id="title">Balandis su alyvmedžio šakele</title>
  <rect width="64" height="64" rx="15" fill="#174f4a"/>
  <g fill="#fff">
    <path d="M28.2 27.7C21.5 19.4 13.6 15 4.8 14.2 7.4 27.8 15 37.7 27.3 42.1l3.1-7.2-2.2-7.2Z"/>
    <path d="M35.8 27.7C42.5 19.4 50.4 15 59.2 14.2 56.6 27.8 49 37.7 36.7 42.1l-3.1-7.2 2.2-7.2Z"/>
    <path d="M32 16.7c-4.7 0-8.3 3.7-8.3 8.4 0 2.8 1.3 5.2 3.3 6.8v9.7c0 6.7 2 11 5 14.1 3-3.1 5-7.4 5-14.1V31.2c1.5-1 2.6-2.5 3.1-4.3l5.1-1.1-5-3.4c-1.1-3.3-4.3-5.7-8.2-5.7Z"/>
    <path d="M31.9 52.3c-5.1 0-9.3 1.7-12.7 5 5 .6 9.2-.2 12.7-2.4 3.6 2.2 7.8 3 12.8 2.4-3.4-3.3-7.7-5-12.8-5Z"/>
  </g>
  <g fill="none" stroke="#174f4a" stroke-linecap="round" stroke-width="1.5" opacity=".9">
    <path d="M10.6 19.3c4.7 7 9.8 11.7 15.4 14.1M15.8 18.5c3.8 5.1 7.6 8.8 11.7 10.9M53.4 19.3c-4.7 7-9.8 11.7-15.4 14.1M48.2 18.5c-3.8 5.1-7.6 8.8-11.7 10.9"/>
  </g>
  <g fill="none" stroke="#d7b56d" stroke-linecap="round" stroke-linejoin="round">
    <path d="M43.1 25.9c4.8-2.1 8.7-5.4 11.6-9.8" stroke-width="2.4"/>
    <path d="M48.3 22.7c.2-2.8 1.7-4.7 4.4-5.7-.1 2.8-1.6 4.7-4.4 5.7Zm4-3.7c1.1-2.5 2.9-3.9 5.5-4.1-1 2.5-2.8 3.9-5.5 4.1Zm-6.8 6.5c-2.5-.5-4.1-1.9-4.9-4.4 2.6.4 4.2 1.9 4.9 4.4Z" fill="#d7b56d" stroke-width=".8"/>
  </g>
</svg>
