<svg xmlns="http://www.w3.org/2000/svg" viewBox="0 0 64 64" role="img" aria-labelledby="title">
  <title id="title">Balandis su alyvmedžio šakele</title>
  <rect width="64" height="64" rx="15" fill="#174f4a"/>
  <g fill="#fff">
    <path d="M31 34.5 8.5 7.2l5.8 20.5L34 40.6Z"/>
    <path d="M9.2 18.6 29.7 32l-6.3 13.2L7.1 28.7Z"/>
    <path d="m25.7 40.6-17.5 15 10.3-2.8 11-10.4Z"/>
    <path d="M22.1 47.3c4-8.1 5.5-17.3 13.3-21.5 6-3.2 10.9-.7 12.8 4.2l6.8-2.4-5.8 6.3c-1.5 9-10.8 13.8-27.1 13.4Z"/>
  </g>
  <path d="M13.7 28.1 29.1 37.8M17.3 48.1l9.1-6.4" fill="none" stroke="#174f4a" stroke-linecap="round" stroke-width="1.8"/>
  <g fill="none" stroke="#d7b56d" stroke-linecap="round" stroke-linejoin="round">
    <path d="M48.2 30.3c4.1-2.6 7.1-6 9.1-10.2" stroke-width="2.2"/>
    <path d="M52.7 27c-.2-2.6 1-4.5 3.4-5.7.3 2.5-.9 4.4-3.4 5.7Zm3.4-4c.7-2.4 2.2-3.8 4.6-4.3-.6 2.4-2.1 3.8-4.6 4.3Zm-6 7.1c-2.4-.2-4-1.4-5-3.6 2.4.1 4.1 1.3 5 3.6Z" fill="#d7b56d" stroke-width=".7"/>
  </g>
</svg>
